<mxfile host="app.diagrams.net" modified="2023-10-02T11:07:41.939Z" agent="Mozilla/5.0 (X11; Linux x86_64) AppleWebKit/537.36 (KHTML, like Gecko) Chrome/118.0.0.0 Safari/537.36" etag="VEu1p8l3fkMZlwd-gETj" version="22.0.0" type="device">
  <diagram id="C5RBs43oDa-KdzZeNtuy" name="Page-1">
    <mxGraphModel dx="1085" dy="2230" grid="1" gridSize="10" guides="1" tooltips="1" connect="1" arrows="1" fold="1" page="1" pageScale="1" pageWidth="827" pageHeight="1169" math="0" shadow="0">
      <root>
        <mxCell id="WIyWlLk6GJQsqaUBKTNV-0" />
        <mxCell id="WIyWlLk6GJQsqaUBKTNV-1" parent="WIyWlLk6GJQsqaUBKTNV-0" />
        <mxCell id="uUtuWupSpBd4TDc1PTtR-65" style="edgeStyle=orthogonalEdgeStyle;rounded=0;orthogonalLoop=1;jettySize=auto;html=1;endSize=10;dashed=1;endArrow=open;endFill=0;" edge="1" parent="WIyWlLk6GJQsqaUBKTNV-1" source="uUtuWupSpBd4TDc1PTtR-3" target="uUtuWupSpBd4TDc1PTtR-41">
          <mxGeometry relative="1" as="geometry">
            <Array as="points">
              <mxPoint x="1140" y="80" />
              <mxPoint x="1140" y="80" />
            </Array>
          </mxGeometry>
        </mxCell>
        <mxCell id="uUtuWupSpBd4TDc1PTtR-66" style="edgeStyle=orthogonalEdgeStyle;rounded=0;orthogonalLoop=1;jettySize=auto;html=1;endSize=10;endArrow=open;endFill=0;" edge="1" parent="WIyWlLk6GJQsqaUBKTNV-1" source="uUtuWupSpBd4TDc1PTtR-3" target="uUtuWupSpBd4TDc1PTtR-41">
          <mxGeometry relative="1" as="geometry">
            <Array as="points">
              <mxPoint x="1100" y="80" />
              <mxPoint x="1100" y="80" />
            </Array>
          </mxGeometry>
        </mxCell>
        <mxCell id="uUtuWupSpBd4TDc1PTtR-67" value="1" style="edgeLabel;html=1;align=center;verticalAlign=middle;resizable=0;points=[];" vertex="1" connectable="0" parent="uUtuWupSpBd4TDc1PTtR-66">
          <mxGeometry x="-0.1761" y="1" relative="1" as="geometry">
            <mxPoint x="-11" y="14" as="offset" />
          </mxGeometry>
        </mxCell>
        <mxCell id="uUtuWupSpBd4TDc1PTtR-68" style="edgeStyle=orthogonalEdgeStyle;rounded=0;orthogonalLoop=1;jettySize=auto;html=1;endArrow=block;endFill=0;endSize=10;" edge="1" parent="WIyWlLk6GJQsqaUBKTNV-1" source="uUtuWupSpBd4TDc1PTtR-3" target="uUtuWupSpBd4TDc1PTtR-41">
          <mxGeometry relative="1" as="geometry" />
        </mxCell>
        <mxCell id="uUtuWupSpBd4TDc1PTtR-3" value="&amp;lt;&amp;lt;abstract&amp;gt;&amp;gt;&lt;br&gt;CafeDecorator" style="swimlane;fontStyle=1;align=center;verticalAlign=top;childLayout=stackLayout;horizontal=1;startSize=40;horizontalStack=0;resizeParent=1;resizeParentMax=0;resizeLast=0;collapsible=0;marginBottom=0;whiteSpace=wrap;html=1;" vertex="1" parent="WIyWlLk6GJQsqaUBKTNV-1">
          <mxGeometry x="970" y="-210" width="300" height="256" as="geometry" />
        </mxCell>
        <mxCell id="uUtuWupSpBd4TDc1PTtR-4" value="- cafe: Icafe" style="text;strokeColor=none;fillColor=none;align=left;verticalAlign=top;spacingLeft=4;spacingRight=4;overflow=hidden;rotatable=0;points=[[0,0.5],[1,0.5]];portConstraint=eastwest;whiteSpace=wrap;html=1;" vertex="1" parent="uUtuWupSpBd4TDc1PTtR-3">
          <mxGeometry y="40" width="300" height="26" as="geometry" />
        </mxCell>
        <mxCell id="uUtuWupSpBd4TDc1PTtR-5" value="" style="line;strokeWidth=1;fillColor=none;align=left;verticalAlign=middle;spacingTop=-1;spacingLeft=3;spacingRight=3;rotatable=0;labelPosition=right;points=[];portConstraint=eastwest;strokeColor=inherit;" vertex="1" parent="uUtuWupSpBd4TDc1PTtR-3">
          <mxGeometry y="66" width="300" height="8" as="geometry" />
        </mxCell>
        <mxCell id="uUtuWupSpBd4TDc1PTtR-6" value="+ getCafe(): ICafe" style="text;strokeColor=none;fillColor=none;align=left;verticalAlign=top;spacingLeft=4;spacingRight=4;overflow=hidden;rotatable=0;points=[[0,0.5],[1,0.5]];portConstraint=eastwest;whiteSpace=wrap;html=1;" vertex="1" parent="uUtuWupSpBd4TDc1PTtR-3">
          <mxGeometry y="74" width="300" height="26" as="geometry" />
        </mxCell>
        <mxCell id="uUtuWupSpBd4TDc1PTtR-13" value="+ setCafe(cafe: ICafe): void" style="text;strokeColor=none;fillColor=none;align=left;verticalAlign=top;spacingLeft=4;spacingRight=4;overflow=hidden;rotatable=0;points=[[0,0.5],[1,0.5]];portConstraint=eastwest;whiteSpace=wrap;html=1;" vertex="1" parent="uUtuWupSpBd4TDc1PTtR-3">
          <mxGeometry y="100" width="300" height="26" as="geometry" />
        </mxCell>
        <mxCell id="uUtuWupSpBd4TDc1PTtR-12" value="+ getCafe(): ICafe" style="text;strokeColor=none;fillColor=none;align=left;verticalAlign=top;spacingLeft=4;spacingRight=4;overflow=hidden;rotatable=0;points=[[0,0.5],[1,0.5]];portConstraint=eastwest;whiteSpace=wrap;html=1;" vertex="1" parent="uUtuWupSpBd4TDc1PTtR-3">
          <mxGeometry y="126" width="300" height="26" as="geometry" />
        </mxCell>
        <mxCell id="uUtuWupSpBd4TDc1PTtR-16" value="+ getValorIngrediente(): float" style="text;strokeColor=none;fillColor=none;align=left;verticalAlign=top;spacingLeft=4;spacingRight=4;overflow=hidden;rotatable=0;points=[[0,0.5],[1,0.5]];portConstraint=eastwest;whiteSpace=wrap;html=1;" vertex="1" parent="uUtuWupSpBd4TDc1PTtR-3">
          <mxGeometry y="152" width="300" height="26" as="geometry" />
        </mxCell>
        <mxCell id="uUtuWupSpBd4TDc1PTtR-15" value="+ getNomeIngrediente(): String" style="text;strokeColor=none;fillColor=none;align=left;verticalAlign=top;spacingLeft=4;spacingRight=4;overflow=hidden;rotatable=0;points=[[0,0.5],[1,0.5]];portConstraint=eastwest;whiteSpace=wrap;html=1;" vertex="1" parent="uUtuWupSpBd4TDc1PTtR-3">
          <mxGeometry y="178" width="300" height="26" as="geometry" />
        </mxCell>
        <mxCell id="uUtuWupSpBd4TDc1PTtR-14" value="+ getValor(): float" style="text;strokeColor=none;fillColor=none;align=left;verticalAlign=top;spacingLeft=4;spacingRight=4;overflow=hidden;rotatable=0;points=[[0,0.5],[1,0.5]];portConstraint=eastwest;whiteSpace=wrap;html=1;" vertex="1" parent="uUtuWupSpBd4TDc1PTtR-3">
          <mxGeometry y="204" width="300" height="26" as="geometry" />
        </mxCell>
        <mxCell id="uUtuWupSpBd4TDc1PTtR-17" value="+ getIngredientes(): String" style="text;strokeColor=none;fillColor=none;align=left;verticalAlign=top;spacingLeft=4;spacingRight=4;overflow=hidden;rotatable=0;points=[[0,0.5],[1,0.5]];portConstraint=eastwest;whiteSpace=wrap;html=1;" vertex="1" parent="uUtuWupSpBd4TDc1PTtR-3">
          <mxGeometry y="230" width="300" height="26" as="geometry" />
        </mxCell>
        <mxCell id="uUtuWupSpBd4TDc1PTtR-54" style="edgeStyle=orthogonalEdgeStyle;rounded=0;orthogonalLoop=1;jettySize=auto;html=1;endArrow=block;endFill=0;endSize=10;" edge="1" parent="WIyWlLk6GJQsqaUBKTNV-1" source="uUtuWupSpBd4TDc1PTtR-18" target="uUtuWupSpBd4TDc1PTtR-41">
          <mxGeometry relative="1" as="geometry" />
        </mxCell>
        <mxCell id="uUtuWupSpBd4TDc1PTtR-18" value="CafePreto" style="swimlane;fontStyle=1;align=center;verticalAlign=top;childLayout=stackLayout;horizontal=1;startSize=31;horizontalStack=0;resizeParent=1;resizeParentMax=0;resizeLast=0;collapsible=0;marginBottom=0;whiteSpace=wrap;html=1;" vertex="1" parent="WIyWlLk6GJQsqaUBKTNV-1">
          <mxGeometry x="970" y="280" width="300" height="117" as="geometry" />
        </mxCell>
        <mxCell id="uUtuWupSpBd4TDc1PTtR-19" value="- valor: float" style="text;strokeColor=none;fillColor=none;align=left;verticalAlign=top;spacingLeft=4;spacingRight=4;overflow=hidden;rotatable=0;points=[[0,0.5],[1,0.5]];portConstraint=eastwest;whiteSpace=wrap;html=1;" vertex="1" parent="uUtuWupSpBd4TDc1PTtR-18">
          <mxGeometry y="31" width="300" height="26" as="geometry" />
        </mxCell>
        <mxCell id="uUtuWupSpBd4TDc1PTtR-20" value="" style="line;strokeWidth=1;fillColor=none;align=left;verticalAlign=middle;spacingTop=-1;spacingLeft=3;spacingRight=3;rotatable=0;labelPosition=right;points=[];portConstraint=eastwest;strokeColor=inherit;" vertex="1" parent="uUtuWupSpBd4TDc1PTtR-18">
          <mxGeometry y="57" width="300" height="8" as="geometry" />
        </mxCell>
        <mxCell id="uUtuWupSpBd4TDc1PTtR-26" value="+ getValor(): float" style="text;strokeColor=none;fillColor=none;align=left;verticalAlign=top;spacingLeft=4;spacingRight=4;overflow=hidden;rotatable=0;points=[[0,0.5],[1,0.5]];portConstraint=eastwest;whiteSpace=wrap;html=1;" vertex="1" parent="uUtuWupSpBd4TDc1PTtR-18">
          <mxGeometry y="65" width="300" height="26" as="geometry" />
        </mxCell>
        <mxCell id="uUtuWupSpBd4TDc1PTtR-27" value="+ getIngredientes(): String" style="text;strokeColor=none;fillColor=none;align=left;verticalAlign=top;spacingLeft=4;spacingRight=4;overflow=hidden;rotatable=0;points=[[0,0.5],[1,0.5]];portConstraint=eastwest;whiteSpace=wrap;html=1;" vertex="1" parent="uUtuWupSpBd4TDc1PTtR-18">
          <mxGeometry y="91" width="300" height="26" as="geometry" />
        </mxCell>
        <mxCell id="uUtuWupSpBd4TDc1PTtR-58" style="edgeStyle=orthogonalEdgeStyle;rounded=0;orthogonalLoop=1;jettySize=auto;html=1;dashed=1;endArrow=open;endFill=0;endSize=10;" edge="1" parent="WIyWlLk6GJQsqaUBKTNV-1" source="uUtuWupSpBd4TDc1PTtR-28" target="uUtuWupSpBd4TDc1PTtR-41">
          <mxGeometry relative="1" as="geometry">
            <Array as="points">
              <mxPoint x="1370" y="680" />
              <mxPoint x="1370" y="130" />
            </Array>
          </mxGeometry>
        </mxCell>
        <mxCell id="uUtuWupSpBd4TDc1PTtR-63" style="edgeStyle=orthogonalEdgeStyle;rounded=0;orthogonalLoop=1;jettySize=auto;html=1;endArrow=block;endFill=0;endSize=10;" edge="1" parent="WIyWlLk6GJQsqaUBKTNV-1" source="uUtuWupSpBd4TDc1PTtR-28" target="uUtuWupSpBd4TDc1PTtR-3">
          <mxGeometry relative="1" as="geometry">
            <Array as="points">
              <mxPoint x="870" y="695" />
              <mxPoint x="870" y="-82" />
            </Array>
          </mxGeometry>
        </mxCell>
        <mxCell id="uUtuWupSpBd4TDc1PTtR-28" value="Canela" style="swimlane;fontStyle=1;align=center;verticalAlign=top;childLayout=stackLayout;horizontal=1;startSize=31;horizontalStack=0;resizeParent=1;resizeParentMax=0;resizeLast=0;collapsible=0;marginBottom=0;whiteSpace=wrap;html=1;" vertex="1" parent="WIyWlLk6GJQsqaUBKTNV-1">
          <mxGeometry x="970" y="650" width="300" height="91" as="geometry" />
        </mxCell>
        <mxCell id="uUtuWupSpBd4TDc1PTtR-30" value="" style="line;strokeWidth=1;fillColor=none;align=left;verticalAlign=middle;spacingTop=-1;spacingLeft=3;spacingRight=3;rotatable=0;labelPosition=right;points=[];portConstraint=eastwest;strokeColor=inherit;" vertex="1" parent="uUtuWupSpBd4TDc1PTtR-28">
          <mxGeometry y="31" width="300" height="8" as="geometry" />
        </mxCell>
        <mxCell id="uUtuWupSpBd4TDc1PTtR-31" value="+ getValorIngrediente(): float" style="text;strokeColor=none;fillColor=none;align=left;verticalAlign=top;spacingLeft=4;spacingRight=4;overflow=hidden;rotatable=0;points=[[0,0.5],[1,0.5]];portConstraint=eastwest;whiteSpace=wrap;html=1;" vertex="1" parent="uUtuWupSpBd4TDc1PTtR-28">
          <mxGeometry y="39" width="300" height="26" as="geometry" />
        </mxCell>
        <mxCell id="uUtuWupSpBd4TDc1PTtR-32" value="+ getNomeIngrediente(): String" style="text;strokeColor=none;fillColor=none;align=left;verticalAlign=top;spacingLeft=4;spacingRight=4;overflow=hidden;rotatable=0;points=[[0,0.5],[1,0.5]];portConstraint=eastwest;whiteSpace=wrap;html=1;" vertex="1" parent="uUtuWupSpBd4TDc1PTtR-28">
          <mxGeometry y="65" width="300" height="26" as="geometry" />
        </mxCell>
        <mxCell id="uUtuWupSpBd4TDc1PTtR-55" style="edgeStyle=orthogonalEdgeStyle;rounded=0;orthogonalLoop=1;jettySize=auto;html=1;endSize=10;endArrow=block;endFill=0;" edge="1" parent="WIyWlLk6GJQsqaUBKTNV-1" source="uUtuWupSpBd4TDc1PTtR-33" target="uUtuWupSpBd4TDc1PTtR-3">
          <mxGeometry relative="1" as="geometry">
            <Array as="points">
              <mxPoint x="910" y="465" />
              <mxPoint x="910" y="-40" />
            </Array>
          </mxGeometry>
        </mxCell>
        <mxCell id="uUtuWupSpBd4TDc1PTtR-56" style="edgeStyle=orthogonalEdgeStyle;rounded=0;orthogonalLoop=1;jettySize=auto;html=1;dashed=1;endArrow=open;endFill=0;endSize=10;" edge="1" parent="WIyWlLk6GJQsqaUBKTNV-1" source="uUtuWupSpBd4TDc1PTtR-33" target="uUtuWupSpBd4TDc1PTtR-41">
          <mxGeometry relative="1" as="geometry">
            <Array as="points">
              <mxPoint x="1330" y="465.4999999999998" />
              <mxPoint x="1330" y="170" />
            </Array>
          </mxGeometry>
        </mxCell>
        <mxCell id="uUtuWupSpBd4TDc1PTtR-33" value="Leite" style="swimlane;fontStyle=1;align=center;verticalAlign=top;childLayout=stackLayout;horizontal=1;startSize=31;horizontalStack=0;resizeParent=1;resizeParentMax=0;resizeLast=0;collapsible=0;marginBottom=0;whiteSpace=wrap;html=1;" vertex="1" parent="WIyWlLk6GJQsqaUBKTNV-1">
          <mxGeometry x="970" y="420" width="300" height="91" as="geometry" />
        </mxCell>
        <mxCell id="uUtuWupSpBd4TDc1PTtR-34" value="" style="line;strokeWidth=1;fillColor=none;align=left;verticalAlign=middle;spacingTop=-1;spacingLeft=3;spacingRight=3;rotatable=0;labelPosition=right;points=[];portConstraint=eastwest;strokeColor=inherit;" vertex="1" parent="uUtuWupSpBd4TDc1PTtR-33">
          <mxGeometry y="31" width="300" height="8" as="geometry" />
        </mxCell>
        <mxCell id="uUtuWupSpBd4TDc1PTtR-35" value="+ getValorIngrediente(): float" style="text;strokeColor=none;fillColor=none;align=left;verticalAlign=top;spacingLeft=4;spacingRight=4;overflow=hidden;rotatable=0;points=[[0,0.5],[1,0.5]];portConstraint=eastwest;whiteSpace=wrap;html=1;" vertex="1" parent="uUtuWupSpBd4TDc1PTtR-33">
          <mxGeometry y="39" width="300" height="26" as="geometry" />
        </mxCell>
        <mxCell id="uUtuWupSpBd4TDc1PTtR-36" value="+ getNomeIngrediente(): String" style="text;strokeColor=none;fillColor=none;align=left;verticalAlign=top;spacingLeft=4;spacingRight=4;overflow=hidden;rotatable=0;points=[[0,0.5],[1,0.5]];portConstraint=eastwest;whiteSpace=wrap;html=1;" vertex="1" parent="uUtuWupSpBd4TDc1PTtR-33">
          <mxGeometry y="65" width="300" height="26" as="geometry" />
        </mxCell>
        <mxCell id="uUtuWupSpBd4TDc1PTtR-57" style="edgeStyle=orthogonalEdgeStyle;rounded=0;orthogonalLoop=1;jettySize=auto;html=1;dashed=1;endArrow=open;endFill=0;endSize=10;" edge="1" parent="WIyWlLk6GJQsqaUBKTNV-1" source="uUtuWupSpBd4TDc1PTtR-37" target="uUtuWupSpBd4TDc1PTtR-41">
          <mxGeometry relative="1" as="geometry">
            <Array as="points">
              <mxPoint x="1350" y="580" />
              <mxPoint x="1350" y="150" />
            </Array>
          </mxGeometry>
        </mxCell>
        <mxCell id="uUtuWupSpBd4TDc1PTtR-62" style="edgeStyle=orthogonalEdgeStyle;rounded=0;orthogonalLoop=1;jettySize=auto;html=1;endArrow=block;endFill=0;endSize=10;" edge="1" parent="WIyWlLk6GJQsqaUBKTNV-1" source="uUtuWupSpBd4TDc1PTtR-37" target="uUtuWupSpBd4TDc1PTtR-3">
          <mxGeometry relative="1" as="geometry">
            <Array as="points">
              <mxPoint x="890" y="585" />
              <mxPoint x="890" y="-60" />
            </Array>
          </mxGeometry>
        </mxCell>
        <mxCell id="uUtuWupSpBd4TDc1PTtR-37" value="Chocolate" style="swimlane;fontStyle=1;align=center;verticalAlign=top;childLayout=stackLayout;horizontal=1;startSize=31;horizontalStack=0;resizeParent=1;resizeParentMax=0;resizeLast=0;collapsible=0;marginBottom=0;whiteSpace=wrap;html=1;" vertex="1" parent="WIyWlLk6GJQsqaUBKTNV-1">
          <mxGeometry x="970" y="539" width="300" height="91" as="geometry" />
        </mxCell>
        <mxCell id="uUtuWupSpBd4TDc1PTtR-38" value="" style="line;strokeWidth=1;fillColor=none;align=left;verticalAlign=middle;spacingTop=-1;spacingLeft=3;spacingRight=3;rotatable=0;labelPosition=right;points=[];portConstraint=eastwest;strokeColor=inherit;" vertex="1" parent="uUtuWupSpBd4TDc1PTtR-37">
          <mxGeometry y="31" width="300" height="8" as="geometry" />
        </mxCell>
        <mxCell id="uUtuWupSpBd4TDc1PTtR-39" value="+ getValorIngrediente(): float" style="text;strokeColor=none;fillColor=none;align=left;verticalAlign=top;spacingLeft=4;spacingRight=4;overflow=hidden;rotatable=0;points=[[0,0.5],[1,0.5]];portConstraint=eastwest;whiteSpace=wrap;html=1;" vertex="1" parent="uUtuWupSpBd4TDc1PTtR-37">
          <mxGeometry y="39" width="300" height="26" as="geometry" />
        </mxCell>
        <mxCell id="uUtuWupSpBd4TDc1PTtR-40" value="+ getNomeIngrediente(): String" style="text;strokeColor=none;fillColor=none;align=left;verticalAlign=top;spacingLeft=4;spacingRight=4;overflow=hidden;rotatable=0;points=[[0,0.5],[1,0.5]];portConstraint=eastwest;whiteSpace=wrap;html=1;" vertex="1" parent="uUtuWupSpBd4TDc1PTtR-37">
          <mxGeometry y="65" width="300" height="26" as="geometry" />
        </mxCell>
        <mxCell id="uUtuWupSpBd4TDc1PTtR-41" value="&amp;lt;&amp;lt;interface&amp;gt;&amp;gt;&lt;br&gt;ICafe" style="swimlane;fontStyle=1;align=center;verticalAlign=top;childLayout=stackLayout;horizontal=1;startSize=40;horizontalStack=0;resizeParent=1;resizeParentMax=0;resizeLast=0;collapsible=0;marginBottom=0;whiteSpace=wrap;html=1;" vertex="1" parent="WIyWlLk6GJQsqaUBKTNV-1">
          <mxGeometry x="970" y="120" width="300" height="100" as="geometry" />
        </mxCell>
        <mxCell id="uUtuWupSpBd4TDc1PTtR-43" value="" style="line;strokeWidth=1;fillColor=none;align=left;verticalAlign=middle;spacingTop=-1;spacingLeft=3;spacingRight=3;rotatable=0;labelPosition=right;points=[];portConstraint=eastwest;strokeColor=inherit;" vertex="1" parent="uUtuWupSpBd4TDc1PTtR-41">
          <mxGeometry y="40" width="300" height="8" as="geometry" />
        </mxCell>
        <mxCell id="uUtuWupSpBd4TDc1PTtR-49" value="+ getValor(): float" style="text;strokeColor=none;fillColor=none;align=left;verticalAlign=top;spacingLeft=4;spacingRight=4;overflow=hidden;rotatable=0;points=[[0,0.5],[1,0.5]];portConstraint=eastwest;whiteSpace=wrap;html=1;" vertex="1" parent="uUtuWupSpBd4TDc1PTtR-41">
          <mxGeometry y="48" width="300" height="26" as="geometry" />
        </mxCell>
        <mxCell id="uUtuWupSpBd4TDc1PTtR-50" value="+ getIngredientes(): String" style="text;strokeColor=none;fillColor=none;align=left;verticalAlign=top;spacingLeft=4;spacingRight=4;overflow=hidden;rotatable=0;points=[[0,0.5],[1,0.5]];portConstraint=eastwest;whiteSpace=wrap;html=1;" vertex="1" parent="uUtuWupSpBd4TDc1PTtR-41">
          <mxGeometry y="74" width="300" height="26" as="geometry" />
        </mxCell>
      </root>
    </mxGraphModel>
  </diagram>
</mxfile>
